<svg id="Layer_1" data-name="Layer 1" xmlns="http://www.w3.org/2000/svg" xmlns:xlink="http://www.w3.org/1999/xlink" viewBox="0 0 16.06 29.66"><defs><style>.cls-1{fill:url(#linear-gradient);}</style><linearGradient id="linear-gradient" x1="-53.07" y1="14.83" x2="280.39" y2="14.83" gradientUnits="userSpaceOnUse"><stop offset="0" stop-color="#1269b3"/><stop offset="0.5" stop-color="#1a9fca"/><stop offset="1" stop-color="#5bbd7d"/></linearGradient></defs><path class="cls-1" d="M15.28,0C13.52,0,11.76,0,10,.16A5.87,5.87,0,0,0,5.43,3.34a7,7,0,0,0-.91,3.31c0,1.08,0,2.16,0,3.24,0,.75,0,.77-.76.78-1,0-2,0-2.94,0-.57,0-.78.18-.79.69C0,12.92,0,14.48,0,16a.61.61,0,0,0,.67.65h.6c.88,0,1.76,0,2.64,0,.42,0,.6.17.58.58,0,.2,0,.4,0,.6V28.66c0,.83.15,1,1,1,1.41,0,2.82,0,4.22,0,.87,0,1-.14,1-1V23.05c0-1.85,0-3.71,0-5.57,0-.74,0-.77.76-.78h3.16c1.2,0,1.2,0,1.2-1.23V11.85c0-1.09-.08-1.17-1.14-1.18H11.28c-.42,0-.6-.15-.59-.57,0-.88,0-1.76,0-2.64a1.64,1.64,0,0,1,0-.22,1.54,1.54,0,0,1,1.45-1.49,4.57,4.57,0,0,1,.83,0h2.18c.61,0,.83-.15.85-.71,0-1.41,0-2.82,0-4.22A.69.69,0,0,0,15.28,0Z"/></svg>