<svg id="Layer_1" data-name="Layer 1" xmlns="http://www.w3.org/2000/svg" xmlns:xlink="http://www.w3.org/1999/xlink" viewBox="0 0 218.24 36.61"><defs><style>.cls-1{fill:#4d4d4f;}.cls-2{fill:url(#linear-gradient);}.cls-3{fill:none;stroke:#4d4d4f;stroke-miterlimit:10;stroke-width:0.66px;}</style><linearGradient id="linear-gradient" y1="19.39" x2="48.37" y2="19.39" gradientUnits="userSpaceOnUse"><stop offset="0" stop-color="#1068b2"/><stop offset="0.5" stop-color="#1a9fca"/><stop offset="1" stop-color="#59bc7b"/></linearGradient></defs><polygon class="cls-1" points="60.05 10.62 60.05 14.18 62.65 14.18 62.65 29.18 67.4 29.18 67.4 14.18 67.4 10.62 62.65 10.62 60.05 10.62"/><path class="cls-1" d="M64.39,8.4a2.62,2.62,0,0,0,2-.72,2.7,2.7,0,0,0,.65-1.88A2.65,2.65,0,0,0,66.44,4a2.62,2.62,0,0,0-2-.72A2.71,2.71,0,0,0,62.32,4a2.61,2.61,0,0,0-.66,1.84,2.66,2.66,0,0,0,.66,1.88A2.71,2.71,0,0,0,64.39,8.4Z"/><path class="cls-1" d="M83.19,10H83a6.71,6.71,0,0,0-3.71,1A5.82,5.82,0,0,0,77,13.85a10.48,10.48,0,0,0-.42,1.4V10.62H72.87V29.18h4.75V18.28a3.92,3.92,0,0,1,1.07-2.87,3.79,3.79,0,0,1,2.82-1.1,3.5,3.5,0,0,1,2.67,1.06,3.9,3.9,0,0,1,1,2.77v11h4.75V18.55q0-4.25-1.71-6.37A6,6,0,0,0,83.19,10Z"/><path class="cls-1" d="M109.84,8.4a2.63,2.63,0,0,0,2-.72,2.62,2.62,0,0,0,.67-1.88A2.57,2.57,0,0,0,111.87,4a3.32,3.32,0,0,0-4.13,0,2.57,2.57,0,0,0-.67,1.84,2.63,2.63,0,0,0,.68,1.88A2.76,2.76,0,0,0,109.84,8.4Z"/><path class="cls-1" d="M97.18,5.29A6,6,0,0,0,95.42,10v.71H93.13v3.49h2.29v15h4.44v-15h4.27V10.72H99.86V9.6A2.24,2.24,0,0,1,100.42,8a2.17,2.17,0,0,1,1.63-.58h2.22V3.75h-1.88A7.74,7.74,0,0,0,97.18,5.29Z"/><polygon class="cls-1" points="105.7 10.62 105.7 14.18 108.06 14.18 108.06 29.18 112.85 29.18 112.85 14.18 112.85 10.62 108.06 10.62 105.7 10.62"/><polygon class="cls-1" points="116.23 4.23 116.23 7.79 118.55 7.79 118.55 29.18 123.3 29.18 123.3 7.79 123.3 4.23 118.55 4.23 116.23 4.23"/><path class="cls-1" d="M136.37,25h-.72l-4.52-14.39h-4.79l6,18.15h3l-.26,1a4,4,0,0,1-.69,1.56,2.53,2.53,0,0,1-1.11.82,4.68,4.68,0,0,1-1.66.25h-3.48v4.07h3a11.47,11.47,0,0,0,3.84-.55,5.48,5.48,0,0,0,2.55-1.79,9,9,0,0,0,1.54-3.33l5.5-20.2h-4.55Z"/><path class="cls-1" d="M153.3,5.39h-4.47v5.23h-2.94v3.49h2.94v8.1a9.63,9.63,0,0,0,.8,4.28,4.65,4.65,0,0,0,2.46,2.26,11.63,11.63,0,0,0,4.26.67H159V25.35h-2.9a2.85,2.85,0,0,1-2.11-.74,2.82,2.82,0,0,1-.73-2.1l0-8.4H159V10.62h-5.72Z"/><path class="cls-1" d="M165.64,8.4a2.63,2.63,0,0,0,2.05-.72,2.7,2.7,0,0,0,.65-1.88A2.65,2.65,0,0,0,167.69,4a2.63,2.63,0,0,0-2.05-.72,2.71,2.71,0,0,0-2.07.72,2.61,2.61,0,0,0-.66,1.84,2.66,2.66,0,0,0,.66,1.88A2.71,2.71,0,0,0,165.64,8.4Z"/><polygon class="cls-1" points="161.3 10.62 161.3 14.18 163.9 14.18 163.9 29.18 168.65 29.18 168.65 14.18 168.65 10.62 163.9 10.62 161.3 10.62"/><path class="cls-1" d="M185.89,24.05a3.77,3.77,0,0,1-1.42,1.23,4.71,4.71,0,0,1-2.15.45,4.4,4.4,0,0,1-2.65-.76,4.31,4.31,0,0,1-1.54-2.08,8.49,8.49,0,0,1-.5-3,8.36,8.36,0,0,1,.52-3,4.53,4.53,0,0,1,1.55-2.07,4.32,4.32,0,0,1,2.58-.75,4,4,0,0,1,2.87,1,3.82,3.82,0,0,1,1.2,2.37H191a7.58,7.58,0,0,0-1.29-3.89,7.79,7.79,0,0,0-3.05-2.62,9.93,9.93,0,0,0-4.38-.94,9.8,9.8,0,0,0-4.08.8,8.51,8.51,0,0,0-2.94,2.16A9.16,9.16,0,0,0,173.48,16a10.94,10.94,0,0,0-.6,3.61v.65a10.69,10.69,0,0,0,.59,3.48,9.41,9.41,0,0,0,1.74,3.1A8,8,0,0,0,178.15,29a9.94,9.94,0,0,0,4.17.81,9.81,9.81,0,0,0,4.42-1,8.11,8.11,0,0,0,3.11-2.65,7.6,7.6,0,0,0,1.32-3.95h-4.65A3.88,3.88,0,0,1,185.89,24.05Z"/><path class="cls-1" d="M207.93,19.74a9.92,9.92,0,0,0-5.15-1.81l-1.64-.17a4.72,4.72,0,0,1-2.17-.65,1.58,1.58,0,0,1-.66-1.36,1.77,1.77,0,0,1,.82-1.51,5,5,0,0,1,4.87.11A2.38,2.38,0,0,1,205,16h4.27A5.34,5.34,0,0,0,207,11.58a9.37,9.37,0,0,0-5.53-1.51,10.73,10.73,0,0,0-3.92.67,5.87,5.87,0,0,0-2.65,2,5.29,5.29,0,0,0-.95,3.21,4.85,4.85,0,0,0,1.67,3.84,8.41,8.41,0,0,0,4.82,1.76l1.61.17a6,6,0,0,1,2.64.75,1.69,1.69,0,0,1,.77,1.44,1.87,1.87,0,0,1-1,1.67,5.21,5.21,0,0,1-2.7.62,4.67,4.67,0,0,1-3-.79,2.61,2.61,0,0,1-1.06-1.74h-4.3a5.66,5.66,0,0,0,2.3,4.49,9.79,9.79,0,0,0,6,1.63A11.32,11.32,0,0,0,206,29a6.36,6.36,0,0,0,2.82-2.1,5.27,5.27,0,0,0,1-3.21A4.8,4.8,0,0,0,207.93,19.74Z"/><path class="cls-2" d="M41.23,2.16l-17,17.05-17-17a24.35,24.35,0,0,0,0,34.45l17-17,17,17.05A24.35,24.35,0,0,0,41.23,2.16Z"/><path class="cls-1" d="M214.56,7.79l-1.12-1.58h-1.59V7.79h-.74V2.64h2a2.46,2.46,0,0,1,1.58.47,1.63,1.63,0,0,1,.57,1.32,1.78,1.78,0,0,1-.29,1,1.71,1.71,0,0,1-.84.61l1.22,1.73Zm-.39-2.5a1.06,1.06,0,0,0,.36-.86,1.06,1.06,0,0,0-.36-.86,1.75,1.75,0,0,0-1.07-.29h-1.25V5.59h1.25A1.68,1.68,0,0,0,214.17,5.29Z"/><circle class="cls-3" cx="213.03" cy="5.21" r="4.88"/></svg>