<svg id="Layer_1" data-name="Layer 1" xmlns="http://www.w3.org/2000/svg" xmlns:xlink="http://www.w3.org/1999/xlink" viewBox="0 0 26.84 26.83"><defs><style>.cls-1{fill:url(#linear-gradient);}.cls-2{fill:url(#linear-gradient-2);}.cls-3{fill:url(#linear-gradient-3);}</style><linearGradient id="linear-gradient" x1="-87.64" y1="6.23" x2="245.82" y2="6.23" gradientUnits="userSpaceOnUse"><stop offset="0" stop-color="#1269b3"/><stop offset="0.5" stop-color="#1a9fca"/><stop offset="1" stop-color="#5bbd7d"/></linearGradient><linearGradient id="linear-gradient-2" x1="-87.64" y1="13.41" x2="245.82" y2="13.41" xlink:href="#linear-gradient"/><linearGradient id="linear-gradient-3" x1="-87.64" y1="13.41" x2="245.82" y2="13.41" xlink:href="#linear-gradient"/></defs><path class="cls-1" d="M20.61,4.51a1.67,1.67,0,0,0-1.74,1.76A1.69,1.69,0,0,0,20.54,8a1.72,1.72,0,1,0,.07-3.44Z"/><path class="cls-2" d="M13.42,6.52a6.78,6.78,0,0,0-6.91,6.85,6.87,6.87,0,1,0,6.91-6.85Zm-.07,11.42a4.53,4.53,0,0,1-4.54-4.55,4.59,4.59,0,0,1,4.58-4.52,4.52,4.52,0,0,1,4.53,4.57A4.45,4.45,0,0,1,13.35,17.94Z"/><path class="cls-3" d="M26.61,6A7.34,7.34,0,0,0,19.29,0H7.46A7.38,7.38,0,0,0,0,7.45c.06,2,0,4,0,6s0,4.12,0,6.18A7.23,7.23,0,0,0,7.2,26.8q6.23.06,12.43,0a7.07,7.07,0,0,0,5.81-3.13,8.29,8.29,0,0,0,1.39-5.07c0-3.46,0-6.93,0-10.4A11.19,11.19,0,0,0,26.61,6ZM24.44,19.24a5.05,5.05,0,0,1-2.5,4.52,5.86,5.86,0,0,1-3.11.76q-5.46,0-10.92,0a7.55,7.55,0,0,1-1.71-.21,5,5,0,0,1-3.89-4.86c0-4,0-8.08,0-12.12a5,5,0,0,1,5-4.95c2,0,4,0,6,0s3.91,0,5.87,0a5.11,5.11,0,0,1,5.19,5.13c0,2.13,0,4.27,0,6.4C24.45,15.67,24.47,17.45,24.44,19.24Z"/></svg>