<svg id="Layer_1" data-name="Layer 1" xmlns="http://www.w3.org/2000/svg" xmlns:xlink="http://www.w3.org/1999/xlink" viewBox="0 0 30.88 29.43"><defs><style>.cls-1{fill:url(#linear-gradient);}.cls-2{fill:url(#linear-gradient-2);}.cls-3{fill:url(#linear-gradient-3);}</style><linearGradient id="linear-gradient" x1="-132.97" y1="19.24" x2="200.49" y2="19.24" gradientUnits="userSpaceOnUse"><stop offset="0" stop-color="#1269b3"/><stop offset="0.5" stop-color="#1a9fca"/><stop offset="1" stop-color="#5bbd7d"/></linearGradient><linearGradient id="linear-gradient-2" x1="-132.97" y1="19.49" x2="200.49" y2="19.49" xlink:href="#linear-gradient"/><linearGradient id="linear-gradient-3" x1="-132.97" y1="3.41" x2="200.49" y2="3.41" xlink:href="#linear-gradient"/></defs><path class="cls-1" d="M30.38,14.44A6.55,6.55,0,0,0,26,9.55a7.35,7.35,0,0,0-7,.86c-.62.46-1.19,1-1.75,1.46,0-.46,0-1.11,0-1.76,0-.38-.14-.56-.53-.55H11.2c-.35,0-.5.16-.49.5,0,.18,0,.36,0,.53V24.15c0,1.53,0,3.06,0,4.6,0,.33,0,.67.47.67h5.65c.36,0,.5-.17.48-.51s0-.4,0-.6V18A3.57,3.57,0,0,1,19,14.83,3.18,3.18,0,0,1,24,16.62a9.28,9.28,0,0,1,.29,2.23c0,3.19,0,6.38,0,9.57,0,1,0,1,1,1H30c.88,0,.88,0,.88-.86,0-3.54,0-7.09,0-10.63A14.73,14.73,0,0,0,30.38,14.44Z"/><path class="cls-2" d="M7.05,10.46c0-.9,0-.9-.86-.9H1.3c-.84,0-.85,0-.85.83V28.68c0,.71,0,.74.71.74H6.35c.67,0,.69,0,.7-.75V10.46Z"/><path class="cls-3" d="M3.9,0,3.66,0A3.38,3.38,0,0,0,.43,1.81,3.2,3.2,0,0,0,.81,5.55a3.78,3.78,0,0,0,4,1.13A3.32,3.32,0,0,0,7,1.74,3.18,3.18,0,0,0,3.9,0Z"/></svg>