<svg id="Layer_1" data-name="Layer 1" xmlns="http://www.w3.org/2000/svg" xmlns:xlink="http://www.w3.org/1999/xlink" viewBox="0 0 28.48 23.74"><defs><style>.cls-1{fill:url(#linear-gradient);}</style><linearGradient id="linear-gradient" x1="-182.35" y1="11.87" x2="151.11" y2="11.87" gradientUnits="userSpaceOnUse"><stop offset="0" stop-color="#1269b3"/><stop offset="0.5" stop-color="#1a9fca"/><stop offset="1" stop-color="#5bbd7d"/></linearGradient></defs><path class="cls-1" d="M28.44,2.91c-.07-.09-.31-.1-.46-.07a4.88,4.88,0,0,0-.64.23l-.93.27c.46-.78.86-1.41,1.21-2.07a2.11,2.11,0,0,0,0-.76A3.83,3.83,0,0,0,27,.64c-.74.3-1.48.63-2.22.94a1.21,1.21,0,0,1-1.33-.2A6.08,6.08,0,0,0,18.7.05,5.73,5.73,0,0,0,15,1.93a6.12,6.12,0,0,0-1.6,4.49c0,.65-.11.76-.74.65-.84-.15-1.69-.29-2.5-.52a16.28,16.28,0,0,1-7.82-5c-.55-.61-.73-.59-1,.13a6,6,0,0,0,.27,5.76c.22.38.47.73.72,1.1-.07,0-.09.06-.11.05l-.78-.26c-.6-.21-.81-.08-.75.55A5.77,5.77,0,0,0,2.18,12.6c.52.53,1.11,1,1.72,1.53l-.46,0c-.79-.05-.92.1-.59.84a6.93,6.93,0,0,0,.89,1.48,6,6,0,0,0,3.14,2.1,2.86,2.86,0,0,1,.44.2,2,2,0,0,1-.39.33c-.54.28-1.07.56-1.63.79a14.06,14.06,0,0,1-4.64.85A.82.82,0,0,0,.05,21c-.16.31.12.51.38.63.76.38,1.52.78,2.31,1.09a17.29,17.29,0,0,0,7,1A15.41,15.41,0,0,0,18.17,21,17.12,17.12,0,0,0,25.68,7.32a2.45,2.45,0,0,1,.81-1.82A24.17,24.17,0,0,0,28.4,3.37.45.45,0,0,0,28.44,2.91Z"/></svg>